#define gaps_width 13
#define gaps_height 13
static unsigned char gaps_bits[] = {
   0x00, 0x00, 0x00, 0x00, 0xbc, 0x07, 0xbc, 0x07, 0xbc, 0x07, 0xbc, 0x07,
   0x3c, 0x00, 0xbc, 0x07, 0xbc, 0x07, 0xbc, 0x07, 0xbc, 0x07, 0x00, 0x00,
   0x00, 0x00 };
