#define mirror_width 13
#define mirror_height 13
static unsigned char mirror_bits[] = {
   0x00, 0x00, 0xfe, 0x0f, 0xfe, 0x0f, 0xfe, 0x0f, 0xfe, 0x0f, 0xfe, 0x0f,
   0x00, 0x00, 0xbe, 0x0f, 0xbe, 0x0f, 0xbe, 0x0f, 0xbe, 0x0f, 0xbe, 0x0f,
   0x00, 0x00 };
