#define spiral_width 13
#define spiral_height 13
static unsigned char spiral_bits[] = {
   0x00, 0x00, 0xbe, 0x0f, 0xbe, 0x0f, 0xbe, 0x0f, 0xbe, 0x0f, 0xbe, 0x0f,
   0xbe, 0x0f, 0x3e, 0x00, 0xbe, 0x0d, 0xbe, 0x0d, 0xbe, 0x0d, 0xbe, 0x0d,
   0x00, 0x00 };
