#define tall_width 13
#define tall_height 13
static unsigned char tall_bits[] = {
   0x00, 0x00, 0xbe, 0x0f, 0xbe, 0x0f, 0xbe, 0x0f, 0xbe, 0x0f, 0xbe, 0x0f,
   0x3e, 0x00, 0xbe, 0x0f, 0xbe, 0x0f, 0xbe, 0x0f, 0xbe, 0x0f, 0xbe, 0x0f,
   0x00, 0x00 };
